<?xml version="1.0" encoding="UTF-8"?>
<svg width="800" height="500" viewBox="0 0 800 500" fill="none" xmlns="http://www.w3.org/2000/svg">
  <!-- Background elements -->
  <rect x="0" y="450" width="800" height="50" rx="0" fill="#10162F" opacity="0.1"/>
  <rect x="100" y="250" width="600" height="12" rx="6" fill="#FFCC33" opacity="0.6"/>
  
  <!-- Abstract shapes -->
  <circle cx="120" cy="100" r="40" fill="#6400E4" opacity="0.1"/>
  <circle cx="680" cy="150" r="60" fill="#FFCC33" opacity="0.1"/>
  <rect x="720" y="300" width="60" height="60" rx="10" fill="#10162F" opacity="0.1"/>
  <polygon points="50,200 90,250 10,250" fill="#6400E4" opacity="0.1"/>
  
  <!-- Main computer workstation -->
  <rect x="300" y="100" width="280" height="200" rx="8" fill="#FFFFFF" stroke="#10162F" stroke-width="4"/>
  <rect x="320" y="120" width="240" height="160" rx="3" fill="#ECF3FC"/>
  
  <!-- Code elements on screen -->
  <rect x="340" y="140" width="100" height="12" rx="2" fill="#6400E4" opacity="0.8"/>
  <rect x="340" y="162" width="200" height="12" rx="2" fill="#10162F" opacity="0.6"/>
  <rect x="340" y="184" width="160" height="12" rx="2" fill="#10162F" opacity="0.6"/>
  <rect x="380" y="206" width="120" height="12" rx="2" fill="#FFCC33" opacity="0.8"/>
  <rect x="340" y="228" width="180" height="12" rx="2" fill="#10162F" opacity="0.6"/>
  <rect x="340" y="250" width="140" height="12" rx="2" fill="#6400E4" opacity="0.8"/>
  
  <!-- Monitor stand -->
  <rect x="410" y="300" width="60" height="25" rx="3" fill="#10162F"/>
  <rect x="390" y="325" width="100" height="15" rx="3" fill="#10162F"/>
  
  <!-- Keyboard -->
  <rect x="370" y="350" width="140" height="20" rx="5" fill="#F5F9FC" stroke="#10162F" stroke-width="2"/>
  <rect x="380" y="355" width="10" height="10" rx="2" fill="#10162F" opacity="0.2"/>
  <rect x="395" y="355" width="10" height="10" rx="2" fill="#10162F" opacity="0.2"/>
  <rect x="410" y="355" width="10" height="10" rx="2" fill="#10162F" opacity="0.2"/>
  <rect x="425" y="355" width="10" height="10" rx="2" fill="#10162F" opacity="0.2"/>
  <rect x="440" y="355" width="10" height="10" rx="2" fill="#10162F" opacity="0.2"/>
  <rect x="455" y="355" width="10" height="10" rx="2" fill="#10162F" opacity="0.2"/>
  <rect x="470" y="355" width="30" height="10" rx="2" fill="#10162F" opacity="0.2"/>
  
  <!-- Coffee cup -->
  <rect x="530" y="350" width="25" height="30" rx="3" fill="#F5F9FC" stroke="#10162F" stroke-width="2"/>
  <path d="M555 355 C565 355, 565 365, 555 365" stroke="#10162F" stroke-width="2" fill="none"/>
  <rect x="535" y="355" width="15" height="5" rx="1" fill="#6400E4" opacity="0.3"/>
  <path d="M535 365 Q540 375, 545 365" stroke="#6400E4" stroke-width="1.5" fill="none"/>
  
  <!-- Cloud with skills -->
  <circle cx="650" cy="200" r="60" fill="#F5F9FC" stroke="#10162F" stroke-width="3"/>
  <circle cx="700" cy="180" r="40" fill="#F5F9FC" stroke="#10162F" stroke-width="3"/>
  <circle cx="610" cy="170" r="30" fill="#F5F9FC" stroke="#10162F" stroke-width="3"/>
  
  <text x="635" y="185" font-family="Arial" font-size="12" fill="#10162F" font-weight="bold">AI</text>
  <text x="625" y="205" font-family="Arial" font-size="12" fill="#6400E4" font-weight="bold">DATA</text>
  <text x="660" y="205" font-family="Arial" font-size="12" fill="#10162F" font-weight="bold">CLOUD</text>
  <text x="630" y="225" font-family="Arial" font-size="12" fill="#FFCC33" font-weight="bold">CODING</text>
  
  <!-- Person figure -->
  <circle cx="180" cy="280" r="45" fill="#F5F9FC" stroke="#10162F" stroke-width="3"/>
  <rect x="165" y="325" width="30" height="80" rx="10" fill="#F5F9FC" stroke="#10162F" stroke-width="3"/>
  <rect x="150" y="365" width="20" height="60" rx="8" transform="rotate(-30 150 365)" fill="#F5F9FC" stroke="#10162F" stroke-width="3"/>
  <rect x="195" y="365" width="20" height="60" rx="8" transform="rotate(30 195 365)" fill="#F5F9FC" stroke="#10162F" stroke-width="3"/>
  
  <!-- Thought bubble connecting to skills -->
  <circle cx="240" cy="250" r="15" fill="#F5F9FC" stroke="#10162F" stroke-width="2"/>
  <circle cx="275" cy="235" r="20" fill="#F5F9FC" stroke="#10162F" stroke-width="2"/>
  <circle cx="320" cy="220" r="25" fill="#F5F9FC" stroke="#10162F" stroke-width="2"/>
  <path d="M320 220 L500 200" stroke="#10162F" stroke-width="2" stroke-dasharray="10 5"/>
  
  <!-- Charts and graphs -->
  <rect x="140" cy="150" width="120" height="80" rx="5" fill="#F5F9FC" stroke="#10162F" stroke-width="2"/>
  <line x1="160" y1="180" x2="240" y2="180" stroke="#10162F" stroke-width="1" opacity="0.3"/>
  <line x1="160" y1="200" x2="240" y2="200" stroke="#10162F" stroke-width="1" opacity="0.3"/>
  <path d="M170 210 L190 170 L210 190 L230 160" stroke="#6400E4" stroke-width="3"/>
  <circle cx="190" cy="170" r="5" fill="#FFCC33"/>
  <circle cx="210" cy="190" r="5" fill="#FFCC33"/>
  <circle cx="230" cy="160" r="5" fill="#FFCC33"/>
  
  <!-- Gear/cog animation suggestion -->
  <circle cx="100" cy="360" r="40" fill="#F5F9FC" stroke="#10162F" stroke-width="3"/>
  <circle cx="100" cy="360" r="20" fill="#6400E4" opacity="0.5"/>
  <path d="M100 310 L100 320 M100 400 L100 410 M150 360 L140 360 M60 360 L50 360 M135 325 L125 335 M75 385 L65 395 M135 395 L125 385 M75 335 L65 325" stroke="#10162F" stroke-width="3"/>
</svg>
